<svg width="24" height="24" viewBox="0 0 24 24" fill="none" xmlns="http://www.w3.org/2000/svg">
<g clip-path="url(#clip0_1414_122)">
<path fill-rule="evenodd" clip-rule="evenodd" d="M24 18C24 19.1046 23.1046 20 22 20H2C0.895431 20 0 19.1046 0 18V9H24V18ZM3 16C2.44772 16 2 16.4477 2 17C2 17.5523 2.44772 18 3 18H6C6.55228 18 7 17.5523 7 17C7 16.4477 6.55228 16 6 16H3Z" fill="#FFDD35"/>
<path d="M22 4C23.1046 4 24 4.89543 24 6V7H0V6C0 4.89543 0.895431 4 2 4H22Z" fill="#FFDD35"/>
</g>
<defs>
<clipPath id="clip0_1414_122">
<rect width="24" height="24" fill="white"/>
</clipPath>
</defs>
</svg>
