<svg width="24" height="24" viewBox="0 0 24 24" fill="none" xmlns="http://www.w3.org/2000/svg">
<path d="M14 18C14 17.4696 13.7893 16.9609 13.4142 16.5858C13.0391 16.2107 12.5304 16 12 16C11.4696 16 10.9609 16.2107 10.5858 16.5858C10.2107 16.9609 10 17.4696 10 18" stroke="#D51E1E" stroke-width="2" stroke-linecap="round" stroke-linejoin="round"/>
<path d="M19 11L16.89 4.34299C16.7976 4.07713 16.6502 3.83376 16.4573 3.62878C16.2645 3.42381 16.0305 3.26185 15.7708 3.15349C15.511 3.04514 15.2313 2.99282 14.9499 2.99997C14.6686 3.00712 14.3919 3.07358 14.138 3.19499L12.862 3.80499C12.5928 3.93346 12.2983 4.00008 12 3.99999H8.5C8.06434 3.9999 7.64057 4.14207 7.29311 4.40487C6.94565 4.66768 6.6935 5.03676 6.575 5.45599L5 11" fill="#D51E1E"/>
<path d="M19 11L16.89 4.34299C16.7976 4.07713 16.6502 3.83376 16.4573 3.62878C16.2645 3.42381 16.0305 3.26185 15.7708 3.15349C15.511 3.04514 15.2313 2.99282 14.9499 2.99997C14.6686 3.00712 14.3919 3.07358 14.138 3.19499L12.862 3.80499C12.5928 3.93346 12.2983 4.00008 12 3.99999H8.5C8.06434 3.9999 7.64057 4.14207 7.29311 4.40487C6.94565 4.66768 6.6935 5.03676 6.575 5.45599L5 11" stroke="#D51E1E" stroke-width="2" stroke-linecap="round" stroke-linejoin="round"/>
<path d="M2 11H22Z" fill="#D51E1E"/>
<path d="M2 11H22" stroke="#D51E1E" stroke-width="2" stroke-linecap="round" stroke-linejoin="round"/>
<path d="M17 21C18.6569 21 20 19.6569 20 18C20 16.3431 18.6569 15 17 15C15.3431 15 14 16.3431 14 18C14 19.6569 15.3431 21 17 21Z" stroke="#D51E1E" stroke-width="2" stroke-linecap="round" stroke-linejoin="round"/>
<path d="M7 21C8.65685 21 10 19.6569 10 18C10 16.3431 8.65685 15 7 15C5.34315 15 4 16.3431 4 18C4 19.6569 5.34315 21 7 21Z" stroke="#D51E1E" stroke-width="2" stroke-linecap="round" stroke-linejoin="round"/>
</svg>
