<svg width="17" height="17" viewBox="0 0 17 17" fill="none" xmlns="http://www.w3.org/2000/svg">
<g clip-path="url(#clip0_481_3409)">
<path fill-rule="evenodd" clip-rule="evenodd" d="M8.5 1.54545C4.65911 1.54545 1.54545 4.65911 1.54545 8.5C1.54545 12.3409 4.65911 15.4545 8.5 15.4545C12.3409 15.4545 15.4545 12.3409 15.4545 8.5C15.4545 4.65911 12.3409 1.54545 8.5 1.54545ZM0 8.5C0 3.80558 3.80558 0 8.5 0C13.1944 0 17 3.80558 17 8.5C17 13.1944 13.1944 17 8.5 17C3.80558 17 0 13.1944 0 8.5Z" fill="black"/>
<path fill-rule="evenodd" clip-rule="evenodd" d="M8.86381 3C9.29057 3 9.63653 3.34596 9.63653 3.77273V8.40909C9.63653 8.70178 9.47117 8.96935 9.20938 9.10024L6.11847 10.6457C5.73676 10.8365 5.2726 10.6818 5.08175 10.3001C4.89089 9.91841 5.04561 9.45425 5.42732 9.2634L8.09108 7.93152V3.77273C8.09108 3.34596 8.43704 3 8.86381 3Z" fill="black"/>
</g>
<defs>
<clipPath id="clip0_481_3409">
<rect width="17" height="17" fill="white"/>
</clipPath>
</defs>
</svg>
