<svg width="17" height="17" viewBox="0 0 17 17" fill="none" xmlns="http://www.w3.org/2000/svg">
<g clip-path="url(#clip0_481_3407)">
<path fill-rule="evenodd" clip-rule="evenodd" d="M14.6583 0.00468246C14.9322 0.034244 15.1723 0.201083 15.2955 0.4475C16.1309 2.11836 17 4.01399 17 7.28568C17 12.1991 12.7543 16.1896 8.09673 16.1904H8.09528V15.3809L8.09774 16.1904L8.09673 16.1904C6.47255 16.1951 4.9059 15.5893 3.70738 14.4931C2.50861 13.3967 1.76569 11.8898 1.62596 10.2713C1.48623 8.65277 1.9599 7.04084 2.95303 5.75522C3.94433 4.47196 5.3809 3.60736 6.9787 3.33212C6.97595 3.33264 6.97321 3.33317 6.97047 3.3337L7.12386 4.12856L6.98754 3.3306C6.98459 3.3311 6.98164 3.33161 6.9787 3.33212C9.29713 2.88458 10.6633 2.57079 11.65 2.14477C12.5816 1.74251 13.1905 1.23228 13.9413 0.30135C14.1142 0.0868956 14.3844 -0.0248791 14.6583 0.00468246ZM12.2918 3.63117C11.1141 4.13964 9.56808 4.48132 7.27725 4.92341L7.26018 4.92652C6.05917 5.13169 4.97915 5.78076 4.2343 6.74498C3.48945 7.7092 3.1342 8.91814 3.239 10.132C3.34379 11.3459 3.90099 12.4761 4.80006 13.2984C5.69914 14.1207 6.87443 14.5751 8.09283 14.5714L8.09528 14.5714C11.8886 14.5714 15.381 11.2764 15.381 7.28568C15.381 5.02707 14.9301 3.53744 14.3623 2.25163C13.7667 2.83156 13.1268 3.2706 12.2918 3.63117Z" fill="black"/>
<path fill-rule="evenodd" clip-rule="evenodd" d="M10.2867 8.3323C10.6029 8.64844 10.6029 9.161 10.2867 9.47714C8.46724 11.2966 6.57837 11.794 5.13914 12.1729C4.83394 12.2533 4.54896 12.3283 4.28914 12.4095C3.53978 12.6437 3.00654 12.9118 2.59614 13.4062C2.17681 13.9113 1.80529 14.7515 1.61287 16.2908C1.55742 16.7344 1.15283 17.0491 0.709196 16.9937C0.265564 16.9382 -0.0491177 16.5336 0.00633645 16.09C0.218677 14.3913 0.656676 13.2077 1.35044 12.372C2.05313 11.5256 2.93655 11.136 3.80622 10.8642C4.14627 10.7579 4.48583 10.6669 4.82575 10.5758C6.23828 10.1974 7.65699 9.81722 9.14191 8.3323C9.45804 8.01617 9.9706 8.01617 10.2867 8.3323Z" fill="black"/>
</g>
<defs>
<clipPath id="clip0_481_3407">
<rect width="17" height="17" fill="white"/>
</clipPath>
</defs>
</svg>
