<?xml version="1.0" encoding="UTF-8"?> <svg xmlns="http://www.w3.org/2000/svg" xmlns:xlink="http://www.w3.org/1999/xlink" width="370.14mm" height="76.29mm" viewBox="0 0 1049.22 216.27"><defs><linearGradient id="a" x1="-35.13" y1="862.51" x2="-34.13" y2="862.51" gradientTransform="matrix(266.67, 0, 0, -266.67, 9505.02, 230111.75)" gradientUnits="userSpaceOnUse"><stop offset="0" stop-color="#6bcfec"></stop><stop offset="0.13" stop-color="#6bcfec"></stop><stop offset="1" stop-color="#18abea"></stop><stop offset="1" stop-color="#18abea"></stop></linearGradient><linearGradient id="b" x1="-35.13" y1="862.51" x2="-34.13" y2="862.51" gradientTransform="matrix(266.67, 0, 0, -266.67, 9369.02, 230111.75)" gradientUnits="userSpaceOnUse"><stop offset="0" stop-color="#4da1db"></stop><stop offset="0.01" stop-color="#4da1db"></stop><stop offset="0.14" stop-color="#4da1db"></stop><stop offset="1" stop-color="#2661a2"></stop><stop offset="1" stop-color="#2661a2"></stop></linearGradient></defs><title>logo-vaxtor-blue</title><path d="M356.75,57.43h21.87l40.53,68.8s1.07,4.26,3.47,0,41.2-68.8,41.2-68.8h21.73l-56,90.53s-7.86,14.67-16.8,1.07-56-91.6-56-91.6" transform="translate(-0.75 -1.2)" style="fill:#2a6090"></path><path d="M445.59,154.75h21.86l41.74-70.53s1.33-2.8,2.8,0,14.13,23.33,14.13,23.33,3.07,2.67-1.47,2.8-22.4,0-22.4,0l-9.2,16.14,44.54.26,16.4,28h21.33s-46-78.93-52.4-88.66-17.47-10.94-24.4,0-52.93,88.66-52.93,88.66" transform="translate(-0.75 -1.2)" style="fill:#2a6090"></path><path d="M577.42,57.43h23.07l34.13,36,34-36h23.2l-46,49.06,46,48-23.33.27-33.87-35.2L601,154.89h-23.6l45.73-48.4Z" transform="translate(-0.75 -1.2)" style="fill:#2a6090"></path><path d="M698.76,57.43h92.4v16.8h-38.4l.4,80.53H736.49l-.13-80h-37.6Z" transform="translate(-0.75 -1.2)" style="fill:#2a6090"></path><path d="M879.49,136.87s-31.07.4-37.34,0h2.4s31.07.4,37.34,0,25.6-5.73,25.2-32.67-29.6-30-29.6-30-30.27.14-30.54,0h-.53s-29.33,2.94-29.73,30,18.93,32.27,25.2,32.67,37.33,0,37.33,0h2.4c-6.4.4-37.33,0-37.33,0m0-79.07h38.53c7.2,0,39.6,11.47,40,39.74.27,13.06,0,15.06,0,15.06s-6.8,39.07-38.67,40c-5.86.27-40.53,0-40.53,0s-43.2-3.46-42.8-47.2a58.35,58.35,0,0,1,.67-11.2c0-10.93,17.2-36.53,42.8-36.4" transform="translate(-0.75 -1.2)" style="fill:#2a6090"></path><path d="M935.31,57.87h77.07s35.73,4.67,35.06,33.33-24.26,32.67-26.66,33.47c2.53,2.67,29.2,29.6,29.2,29.6h-24.8l-26.67-27.33-36.4-.14-.27-17.33,48.54.4s20.26-.53,20.13-17.33-15.73-18.4-21.47-18.4H952.51l.53,80H935.31Z" transform="translate(-0.75 -1.2)" style="fill:#2a6090"></path><path d="M193,1.34,136.75,57.47v44.27l76.94.26.26,64.27-35.6,34.93L193,217.47H230L336.89,109.34,229.55,1.2H193Z" transform="translate(-0.75 -1.2)" style="fill:url(#a)"></path><path d="M108.09,1.34.75,109.34,108.49,217.47h36.26l56-57.2V114.54h-76.4V52.8L160,16.54l-15.2-15.2Z" transform="translate(-0.75 -1.2)" style="fill:url(#b)"></path></svg> 