<svg width="17" height="17" viewBox="0 0 17 17" fill="none" xmlns="http://www.w3.org/2000/svg">
<path d="M2.31818 9.65953C2.31818 9.01939 2.83712 8.50044 3.47727 8.50044C4.11742 8.50044 4.63636 9.01939 4.63636 9.65953C4.63636 10.2997 4.11742 10.8186 3.47727 10.8186C2.83712 10.8186 2.31818 10.2997 2.31818 9.65953Z" fill="black"/>
<path d="M13.5227 8.50044C12.8826 8.50044 12.3636 9.01939 12.3636 9.65953C12.3636 10.2997 12.8826 10.8186 13.5227 10.8186C14.1629 10.8186 14.6818 10.2997 14.6818 9.65953C14.6818 9.01939 14.1629 8.50044 13.5227 8.50044Z" fill="black"/>
<path fill-rule="evenodd" clip-rule="evenodd" d="M2.32784 2.8431C2.44956 2.09523 3.09552 1.5459 3.85323 1.5459H13.1468C13.9045 1.5459 14.5504 2.09523 14.6722 2.8431L15.1287 5.64809C15.1496 5.77649 15.1541 5.90291 15.1441 6.02557C15.2917 6.03708 15.4408 6.04895 15.5913 6.06118C16.3884 6.12598 17 6.79483 17 7.59454V12.3641C17 13.2176 16.3081 13.9095 15.4545 13.9095V15.0686C15.4545 15.7088 14.9356 16.2277 14.2955 16.2277C13.6553 16.2277 13.1364 15.7088 13.1364 15.0686V13.9095H3.86364V15.0686C3.86364 15.7088 3.34469 16.2277 2.70455 16.2277C2.0644 16.2277 1.54545 15.7088 1.54545 15.0686L1.54545 13.9095C0.691923 13.9095 0 13.2176 0 12.3641V7.60118C0 6.7987 0.615792 6.12866 1.41581 6.06592C1.56442 6.05427 1.71161 6.04292 1.85748 6.03188C1.8463 5.90592 1.85053 5.77594 1.87202 5.64385L2.32784 2.8431ZM3.85323 3.09135H13.1468L13.6033 5.89634L13.6004 5.90011C13.5957 5.9051 13.5907 5.90806 13.5874 5.90932L13.5834 5.91039C13.5834 5.91039 13.5787 5.91098 13.5723 5.9104C9.93605 5.58587 7.19605 5.57107 3.4311 5.90791C3.42449 5.9085 3.41935 5.90788 3.41935 5.90788L3.41467 5.90664C3.411 5.9052 3.40563 5.902 3.40068 5.89677L3.39732 5.8927L3.85323 3.09135ZM1.54545 7.60595L1.54545 12.3641H15.4545V7.60062C10.1663 7.1712 6.74902 7.19814 1.54545 7.60595Z" fill="black"/>
</svg>
