<svg width="17" height="17" viewBox="0 0 17 17" fill="none" xmlns="http://www.w3.org/2000/svg">
<g clip-path="url(#clip0_481_3403)">
<path d="M8.288 14.1936C7.88996 14.1936 7.56728 13.8709 7.56728 13.4729V13.0633C6.97885 12.932 6.48143 12.678 6.07503 12.3013C5.84979 12.0879 5.65908 11.8499 5.50289 11.5874C5.29468 11.2375 5.50335 10.8113 5.88551 10.6706C6.25659 10.5341 6.65972 10.72 6.91122 11.0251C7.0213 11.1587 7.14473 11.2793 7.28153 11.3869C7.60326 11.6366 7.97156 11.7615 8.38643 11.7615C8.80976 11.7615 9.14843 11.6557 9.40243 11.444C9.65643 11.2324 9.78343 10.9254 9.78343 10.5233C9.78343 10.2396 9.703 10.0026 9.54213 9.81208C9.38126 9.61734 9.16748 9.45013 8.90078 9.31043C8.63831 9.17073 8.34833 9.0395 8.03083 8.91673C7.73026 8.7982 7.4297 8.6712 7.12913 8.53573C6.8328 8.39603 6.56186 8.22881 6.31633 8.03408C6.07503 7.83511 5.8803 7.59169 5.73213 7.30383C5.5882 7.01596 5.51623 6.66671 5.51623 6.25608C5.51623 5.72268 5.69403 5.24643 6.04963 4.82733C6.40523 4.40399 6.91111 4.13729 7.56728 4.02723V3.7383C7.56728 3.34026 7.88996 3.01758 8.288 3.01758C8.68605 3.01758 9.00873 3.34026 9.00873 3.7383V4.03993C9.52096 4.14999 9.93795 4.36589 10.2597 4.68763C10.4102 4.83618 10.539 4.99725 10.646 5.17083C10.8518 5.50483 10.6328 5.90897 10.2604 6.03251C9.8926 6.15453 9.49956 5.94884 9.2066 5.69511C9.17202 5.66516 9.1357 5.63625 9.09763 5.60838C8.86056 5.43058 8.55577 5.34168 8.18323 5.34168C7.81916 5.34168 7.53553 5.42211 7.33233 5.58298C7.12913 5.73961 7.02753 5.96398 7.02753 6.25608C7.02753 6.48044 7.10161 6.67094 7.24978 6.82758C7.40218 6.98421 7.60326 7.12391 7.85303 7.24668C8.1028 7.36521 8.37585 7.47951 8.67218 7.58958C8.96428 7.69965 9.26273 7.82876 9.56753 7.97693C9.87656 8.12509 10.1602 8.30713 10.4184 8.52303C10.6809 8.73893 10.8926 9.00774 11.0534 9.32948C11.2143 9.65121 11.2947 10.0428 11.2947 10.5042C11.2947 10.9953 11.1931 11.4207 10.9899 11.7806C10.791 12.1404 10.52 12.4325 10.1771 12.6569C9.83423 12.877 9.44476 13.0231 9.00873 13.095V13.4729C9.00873 13.8709 8.68605 14.1936 8.288 14.1936Z" fill="black"/>
<path fill-rule="evenodd" clip-rule="evenodd" d="M8.5 15.5C12.366 15.5 15.5 12.366 15.5 8.5C15.5 4.63401 12.366 1.5 8.5 1.5C4.63401 1.5 1.5 4.63401 1.5 8.5C1.5 12.366 4.63401 15.5 8.5 15.5ZM17 8.5C17 13.1944 13.1944 17 8.5 17C3.80558 17 0 13.1944 0 8.5C0 3.80558 3.80558 0 8.5 0C13.1944 0 17 3.80558 17 8.5Z" fill="black"/>
</g>
<defs>
<clipPath id="clip0_481_3403">
<rect width="17" height="17" fill="white"/>
</clipPath>
</defs>
</svg>
