<svg width="17" height="17" viewBox="0 0 17 17" fill="none" xmlns="http://www.w3.org/2000/svg">
<g clip-path="url(#clip0_481_3405)">
<path fill-rule="evenodd" clip-rule="evenodd" d="M7.74255 1.51415C7.74255 0.682718 8.43262 -0.0856983 9.36664 0.00772801C11.3221 0.203706 13.1498 1.07007 14.5396 2.45992C15.9294 3.84976 16.7959 5.67758 16.9923 7.63351C17.0857 8.56663 16.318 9.25828 15.4864 9.25834L9.29124 9.25911C8.88053 9.25911 8.48654 9.09591 8.19613 8.80542C7.90571 8.51493 7.74255 8.12094 7.74255 7.71012V1.51415ZM9.29114 1.55736C10.8613 1.73276 12.3262 2.43687 13.4447 3.55534C14.5631 4.67377 15.2673 6.13885 15.443 7.70935L9.29114 7.71012V1.55736Z" fill="black"/>
<path fill-rule="evenodd" clip-rule="evenodd" d="M6.13003 1.07227C6.30107 1.46431 6.12199 1.92081 5.73005 2.09189C4.68676 2.54728 3.77088 3.25138 3.06249 4.14262C2.35409 5.03386 1.87474 6.08511 1.66636 7.20447C1.45797 8.32382 1.52689 9.4772 1.86708 10.5638C2.20727 11.6503 2.80839 12.637 3.61787 13.4375C4.42735 14.238 5.42055 14.8279 6.51064 15.1558C7.60073 15.4836 8.75451 15.5394 9.87112 15.3182C10.9877 15.097 12.0332 14.6055 12.916 13.8868C13.7989 13.1681 14.4923 12.244 14.9356 11.1953C15.1022 10.8013 15.5565 10.617 15.9503 10.7836C16.3442 10.9502 16.5285 11.4046 16.3619 11.7986C15.8201 13.0803 14.9726 14.2098 13.8935 15.0882C12.8145 15.9666 11.5367 16.5673 10.172 16.8377C8.80724 17.108 7.39706 17.0399 6.06473 16.6392C4.7324 16.2385 3.51849 15.5174 2.52912 14.539C1.53976 13.5606 0.805063 12.3547 0.38927 11.0267C-0.0265234 9.69867 -0.110754 8.28899 0.143942 6.92089C0.398638 5.55279 0.984505 4.26793 1.85032 3.17863C2.71614 2.08934 3.83555 1.22878 5.11068 0.672185C5.50262 0.501105 5.959 0.680229 6.13003 1.07227Z" fill="black"/>
</g>
<defs>
<clipPath id="clip0_481_3405">
<rect width="17" height="17" fill="white"/>
</clipPath>
</defs>
</svg>
